<?xml version="1.0" encoding="UTF-8"?>
<svg id="Capa_2" data-name="Capa 2" xmlns="http://www.w3.org/2000/svg" viewBox="0 0 640.94 946.1">
  <defs>
    <style>
      .cls-1 {
        fill: #fff;
        stroke-linejoin: round;
      }

      .cls-1, .cls-2, .cls-3 {
        stroke: #0095c9;
      }

      .cls-1, .cls-3 {
        stroke-width: 10px;
      }

      .cls-2 {
        stroke-width: 12px;
      }

      .cls-2, .cls-3 {
        fill: none;
        stroke-miterlimit: 10;
      }
    </style>
  </defs>
  <g id="Capa_1-2" data-name="Capa 1">
    <path class="cls-2" d="M546.8,390.2c.91,12.82,1.83,25.64,2.74,38.46-8.5,8-17,16-25.5,24-17.96,3.23-35.92,6.46-53.88,9.69-9.42-4.8-18.85-9.6-28.27-14.41-.91-12.81-1.82-25.63-2.73-38.44-9.41-4.8-18.83-9.59-28.24-14.39-17.94,3.21-35.88,6.41-53.82,9.62-8.69-4.43-17.38-8.86-26.07-13.29-.72-.37-1.43-.73-2.15-1.1-.91-12.81-1.82-25.62-2.74-38.43,8.53-8.01,17.06-16.02,25.6-24.02,17.93-3.23,35.87-6.46,53.8-9.69,9.41,4.8,18.82,9.59,28.23,14.39.92,12.8,1.85,25.61,2.77,38.41,9.4,4.81,18.81,9.62,28.21,14.43,17.93-3.21,35.86-6.42,53.78-9.64,7,3.57,14.01,7.14,21.01,10.71,2.42,1.23,4.84,2.46,7.25,3.7Z"/>
    <path class="cls-3" d="M621.65,452.47c4.24,11.86,8.49,23.72,12.73,35.58-12.34,3.16-24.67,6.31-37.01,9.47"/>
    <line class="cls-3" x1="630.37" y1="486.23" x2="572.75" y2="455.18"/>
    <path class="cls-1" d="M176.4,41.31c-2.8-1.52-5.61-3.03-8.41-4.55-11.07-5.98-22.15-11.97-33.22-17.95,0,14.45,0,28.9,0,43.36-4.74-2.57-9.49-5.13-14.23-7.7,0-14.45,0-28.9,0-43.36-31.62,11.8-63.24,23.59-94.85,35.39,0,24.58,0,49.16,0,73.73,15.81,8.55,31.62,17.1,47.43,25.65,0,4.34,0,8.67,0,13.01-15.81-8.55-31.62-17.11-47.43-25.66,15.81,23.01,31.62,46.03,47.43,69.05,0,24.57,0,49.14,0,73.71,15.81,8.55,31.62,17.11,47.43,25.66,0,4.34,0,8.67,0,13.01-15.81-8.55-31.62-17.11-47.43-25.66,15.81,23.01,31.62,46.02,47.43,69.02,0,28.9,0,57.8,0,86.7-15.81,5.93-31.62,11.85-47.42,17.78l47.42,25.66v13.01s-47.43-25.66-47.43-25.66c0,10.37,0,20.73,0,31.1v42.59c-15.81,5.9-31.62,11.81-47.43,17.71,0,28.9,0,57.8,0,86.7,31.62,46.01,63.24,92.03,94.85,138.04,0,28.84,0,57.69,0,86.53,18.62,10.07,37.24,20.15,55.86,30.22,0-139.27,0-278.53,0-417.8,0-149.76,0-299.52,0-449.28Z"/>
    <path class="cls-1" d="M210.04,785.41c31.81-48.92,63.61-97.84,95.42-146.76,0-24.56,0-49.12,0-73.68l-47.68,29.99v-13.01s47.68-29.99,47.68-29.99c-15.91-4.45-31.82-8.9-47.73-13.36-.16-24.98-.23-50.15-.2-75.51.01-13.86.07-27.68.14-41.5l-47.62,29.96v-13.01s47.68-30,47.68-30c-15.89-4.46-31.79-8.91-47.68-13.37,0-14.46,0-28.92,0-43.38,31.81-48.91,63.61-97.82,95.42-146.73l-47.68,30v-13.01s47.68-30,47.68-30c0-24.56,0-49.12,0-73.68-15.91-4.45-31.82-8.9-47.73-13.36,0-28.9,0-57.81,0-86.71-15.89-4.44-31.79-8.88-47.68-13.32v43.35s-14.31,9-14.31,9V14c-31.79,20-63.58,39.99-95.37,59.99-15.89,24.43-31.79,48.87-47.68,73.3,15.89-10,31.79-20,47.68-30,0,4.34,0,8.67,0,13.01-15.89,10-31.79,20-47.68,30,0,24.57,0,49.13,0,73.7,15.89,4.47,31.79,8.93,47.68,13.4,0,28.89,0,57.79,0,86.68-31.79,48.9-63.58,97.8-95.37,146.69l47.68-30v13.01s-47.68,30-47.68,30c0,7.41,0,14.83,0,22.24,0,17.17,0,34.35,0,51.52,31.79,8.9,63.58,17.8,95.37,26.7,0,28.9,0,57.81,0,86.71-15.89,24.46-31.79,48.92-47.68,73.37,0,28.91,0,57.81,0,86.72,15.89,4.45,31.79,8.91,47.68,13.36,0,28.9,0,57.8,0,86.7,15.9-10,31.81-20.01,47.71-30.01l14.31-9c15.89-9.99,31.77-19.99,47.66-29.98,0-28.9,0-57.8,0-86.7Z"/>
    <path class="cls-1" d="M232.28,849.56c31.63-11.8,63.27-23.6,94.9-35.39,0-14.44,0-28.87,0-43.31-15.82-23.03-31.65-46.05-47.47-69.08,0-28.91,0-57.82,0-86.73,15.82-5.88,31.65-11.76,47.47-17.64,0-39.03,0-78.06,0-117.09l-47.42-25.66v-13.01s47.42,25.66,47.42,25.66c-15.82-23.02-31.65-46.04-47.47-69.06,0-6.62,0-36.44,0-43.06,0-3.47,0-27.16,0-30.63-15.81-8.56-31.62-17.11-47.43-25.67,0-4.34,0-8.67,0-13.01,15.81,8.55,31.62,17.11,47.43,25.66-15.81-23.01-31.62-46.02-47.43-69.03,0-14.46,0-28.91,0-43.37,15.81-5.9,31.62-11.81,47.43-17.71l-47.42-25.66v-13.01s47.42,25.66,47.42,25.66c0-10.12,0-20.24,0-30.36-15.81-23.03-31.62-46.05-47.43-69.08-15.8-8.54-31.6-17.08-47.4-25.61-5.47-2.85-10.94-5.7-16.41-8.55h0c0,139.24,0,278.47,0,417.71,0,149.65,0,299.3,0,448.95,21.27,11.54,42.54,23.07,63.81,34.61,0-28.84,0-57.68,0-86.52Z"/>
    <path class="cls-2" d="M380.75,361.37c-12.52-6.93-25.04-13.85-37.56-20.78"/>
  </g>
</svg>