<?xml version="1.0" encoding="UTF-8"?>
<svg id="Capa_2" data-name="Capa 2" xmlns="http://www.w3.org/2000/svg" viewBox="0 0 1152.99 550.39">
  <defs>
    <style>
      .cls-1 {
        stroke-dasharray: 10 10;
        stroke-width: 10px;
      }

      .cls-1, .cls-2 {
        fill: none;
        stroke: #0095c9;
        stroke-miterlimit: 10;
      }

      .cls-2 {
        stroke-width: 12px;
      }
    </style>
  </defs>
  <g id="Capa_1-2" data-name="Capa 1">
    <path class="cls-2" d="M544.96,540.79l-125.34-217.1c2.61-1.51,5.22-3.01,7.83-4.52,1.1-4.11,2.2-8.23,3.3-12.34-1.51-2.61-3.01-5.22-4.52-7.82-4.11-1.1-8.22-2.21-12.33-3.31-2.61,1.51-5.22,3.01-7.83,4.52h0c-42.68-73.93-85.37-147.86-128.05-221.79h-4.07c-42.68,73.92-85.35,147.83-128.03,221.75-2.61-1.51-5.22-3.01-7.84-4.52-4.11,1.1-8.22,2.21-12.33,3.31-1.51,2.61-3.01,5.22-4.52,7.82,1.1,4.11,2.2,8.23,3.3,12.34,2.61,1.51,5.22,3.02,7.83,4.53-41.81,72.41-83.61,144.82-125.42,217.23l2.05,3.51h534.08l1.89-3.6Z"/>
    <path class="cls-1" d="M162.75,544.39c2.93-10.91,5.85-21.82,8.78-32.73-18.31-31.72-36.63-63.44-54.94-95.16-10.92-2.92-21.84-5.84-32.76-8.76"/>
    <path class="cls-1" d="M389.22,544.39c-2.93-10.91-5.85-21.82-8.78-32.73,18.31-31.72,36.63-63.44,54.94-95.16,10.92-2.92,21.84-5.84,32.76-8.76"/>
    <path class="cls-1" d="M354.89,211.62c-7.99,7.99-15.97,15.98-23.96,23.97h-109.89c-7.99-8-15.98-16-23.96-24"/>
    <polygon class="cls-2" points="1146.99 273.01 1146.99 6 879.99 6 875.96 6 608.95 6 608.95 272.95 608.95 276.99 608.95 544.04 875.96 544.04 879.99 544.04 1146.99 544.04 1146.99 277.04 1146.99 273.01"/>
    <path class="cls-1" d="M743.49,6.01v42.81c29.9,29.89,59.79,59.78,89.69,89.67h89.63c29.89-29.91,59.77-59.82,89.66-89.72V6.01"/>
    <path class="cls-1" d="M608.96,140.53h42.81c29.89,29.9,59.78,59.79,89.67,89.69v89.63c-29.91,29.89-59.82,59.77-89.72,89.66h-42.76"/>
    <path class="cls-1" d="M1146.98,140.53h-42.81c-29.89,29.9-59.78,59.79-89.67,89.69v89.63c29.91,29.89,59.82,59.77,89.72,89.66h42.76"/>
    <path class="cls-1" d="M1012.46,544.03v-42.81c-29.9-29.89-59.79-59.78-89.69-89.67h-89.63c-29.89,29.91-59.77,59.82-89.66,89.72v42.76"/>
  </g>
</svg>