<?xml version="1.0" encoding="UTF-8"?>
<svg id="Capa_2" data-name="Capa 2" xmlns="http://www.w3.org/2000/svg" viewBox="0 0 811.74 431.21">
  <defs>
    <style>
      .cls-1 {
        fill: none;
        stroke: #0095c9;
        stroke-miterlimit: 10;
        stroke-width: 12px;
      }
    </style>
  </defs>
  <g id="Capa_1-2" data-name="Capa 1">
    <path class="cls-1" d="M663.91,53.33c15.75-15.78,31.51-31.55,47.26-47.33,15.73,0,31.46,0,47.18,0,15.79,15.78,31.59,31.55,47.38,47.33,0,15.77,0,31.54,0,47.31-15.75,15.77-31.5,31.53-47.25,47.3,0,15.75,0,31.51,0,47.26,15.75,15.78,31.49,31.56,47.24,47.34,0,14.54,0,29.09,0,43.63v3.6c-15.74,15.76-31.49,31.53-47.23,47.29-15.76-.03-31.52-.06-47.28-.09-15.77-15.75-31.55-31.49-47.32-47.24,0-15.75,0-31.5,0-47.25,15.73-15.77,31.45-31.54,47.18-47.31.02-15.76.04-31.51.07-47.27-15.75-15.76-31.5-31.52-47.25-47.28,0-11.72,0-23.44,0-35.16v-12.14Z"/>
    <path class="cls-1" d="M338.51,295.81c-.01-48.12-.02-96.24-.03-144.35-16.06,0-32.12-.02-48.18-.03-16.02-16.03-32.04-32.05-48.06-48.08.02-11.01,0-45.79,0-48.16,16.06-16.04,32.12-32.07,48.18-48.11,16.03,0,32.05,0,48.08,0,16.04,16.03,32.08,32.07,48.12,48.1,0,48.12.02,96.25.02,144.37,16.02,0,32.05.01,48.07.02,16.06,16.05,32.12,32.09,48.18,48.14,0,16.02,0,32.05,0,48.07-16.05,16.07-32.1,32.14-48.14,48.21-3.09,0-38.58,0-48.07,0-16.05-16.06-32.11-32.12-48.16-48.18Z"/>
    <path class="cls-1" d="M6,52.61c15.51-15.51,31.02-31.02,46.52-46.53h46.56c15.53,15.53,31.06,31.05,46.59,46.58.01,15.5.02,31,.03,46.51-15.55,15.57-31.11,31.13-46.66,46.7,15.53,15.5,31.07,30.99,46.6,46.49,15.55-15.51,31.1-31.02,46.65-46.52,15.44.03,30.88.07,46.31.1,15.6,15.48,31.19,30.96,46.79,46.44,0,1.65,0,9.01,0,10.66,0,11.97-.01,23.94-.03,35.91-15.54,15.51-31.09,31.02-46.63,46.52-15.49,0-30.98,0-46.47,0-15.53-15.52-31.07-31.03-46.6-46.55-15.54,15.52-31.09,31.04-46.63,46.57,15.54,15.53,31.09,31.06,46.63,46.59,0,15.53,0,31.06,0,46.59-15.49,15.52-30.99,31.04-46.48,46.57-2.23,0-12.15,0-14.38,0-9.14,0-23.05,0-32.19-.02-15.54-15.53-31.08-31.06-46.62-46.59,0-15.5,0-31.01,0-46.51,15.51-15.53,31.03-31.05,46.54-46.58,0-46.58.02-93.16.03-139.74-15.52-15.53-31.04-31.06-46.57-46.59,0-15.53,0-31.05,0-46.58Z"/>
    <path class="cls-1" d="M436.88,58.67c17.53-17.53,35.05-35.06,52.58-52.59h52.55c17.52,17.51,35.04,35.02,52.56,52.53,0,17.53,0,35.05,0,52.58,17.51,0,35.03,0,52.54.01,0,17.52.01,35.04.02,52.56-17.53,17.52-35.05,35.04-52.58,52.57h-52.55c-17.51-17.51-35.03-35.02-52.54-52.54,0-17.53-.01-35.06-.02-52.59h-52.56v-52.53Z"/>
  </g>
</svg>