<?xml version="1.0" encoding="UTF-8"?>
<svg id="Capa_2" data-name="Capa 2" xmlns="http://www.w3.org/2000/svg" viewBox="0 0 1162.84 613.66">
  <defs>
    <style>
      .cls-1 {
        fill: #0095c8;
      }

      .cls-2 {
        stroke-dasharray: 10 10;
      }

      .cls-2, .cls-3, .cls-4 {
        fill: none;
        stroke: #0095c9;
        stroke-miterlimit: 10;
      }

      .cls-2, .cls-4 {
        stroke-width: 12px;
      }

      .cls-3 {
        stroke-width: 8px;
      }
    </style>
  </defs>
  <g id="Capa_1-2" data-name="Capa 1">
    <polygon class="cls-4" points="831.8 494.67 1150.3 384.08 904.19 196.82 900.47 193.99 654.35 6.72 335.91 117.3 331.1 118.97 12.54 229.59 258.65 416.85 262.37 419.68 508.49 606.94 826.98 496.35 831.8 494.67"/>
    <path class="cls-2" d="M778.35,101.08c-17.02,5.91-34.05,11.82-51.07,17.73-8.1,33.35-16.2,66.7-24.29,100.05l82.62,62.86c63.23,8.57,126.45,17.15,189.68,25.72,17-5.9,34.01-11.81,51.01-17.71"/>
    <path class="cls-2" d="M493.89,62.45c13.16,10.01,26.31,20.02,39.47,30.03-8.11,33.35-16.22,66.69-24.33,100.04l-106.92,37.13c-63.22-8.6-126.44-17.19-189.66-25.79-13.14-10-26.28-19.99-39.42-29.99"/>
    <path class="cls-2" d="M989.82,439.79c-13.16-10.01-26.31-20.02-39.47-30.03-63.22-8.58-126.43-17.16-189.65-25.74l-106.92,37.13c-8.08,33.36-16.17,66.71-24.25,100.07,13.14,10,26.28,19.99,39.42,29.99"/>
    <path class="cls-2" d="M384.49,512.58c17.02-5.91,34.05-11.82,51.07-17.73,8.1-33.35,16.2-66.7,24.29-100.05l-82.62-62.86c-63.23-8.57-126.45-17.15-189.68-25.72-17,5.9-34.01,11.81-51.01,17.71"/>
    <path class="cls-3" d="M135.66,520.59c-36.25-28.17-72.51-56.34-108.76-84.51-1.25-.99-5.99-4.88-6.67-9.67-.81-5.64,4.6-8.19,5.53-8.61,19.43-8.21,38.85-16.43,58.28-24.64.82-.39,6.23-2.85,15.24-.96,8.54,1.79,13.94,6.14,14.86,6.9,36.28,28.19,72.56,56.38,108.85,84.57,1.11.89,6.23,5.11,6.58,10.2.36,5.29-4.69,7.62-5.69,8.06-19.38,8.2-38.76,16.39-58.15,24.59-.55.34-5.83,3.42-15.2,1.45-8.87-1.86-14.19-6.74-14.86-7.37Z"/>
    <path class="cls-1" d="M25.04,429.29c9.01-3.81,18.02-7.62,27.03-11.43,3.83.14,7.67.27,11.5.41l13.48-5.72c.72-2.06,1.44-4.12,2.17-6.17,9.02-3.82,18.05-7.63,27.07-11.45-.71-.41-3.5-1.94-7.09-2.31-2.7-.27-4.43.25-5.11.5-22.92,9.69-45.84,19.38-68.75,29.07-.24.17-1.63,1.23-1.85,3.14-.26,2.29,1.39,3.8,1.55,3.94Z"/>
    <path class="cls-1" d="M227.37,491.8c-9.01,3.81-18.02,7.62-27.03,11.43-3.83-.14-7.67-.27-11.5-.41-4.49,1.91-8.98,3.81-13.48,5.72-.72,2.06-1.45,4.12-2.17,6.17-9.02,3.81-18.05,7.63-27.07,11.44.71.41,3.49,1.94,7.09,2.31,2.7.27,4.43-.25,5.11-.5,22.92-9.69,45.84-19.38,68.76-29.07.24-.17,1.63-1.23,1.85-3.14.26-2.29-1.39-3.8-1.55-3.94Z"/>
    <path class="cls-3" d="M20.15,432.09c-.05,3.75-.1,7.5-.15,11.25-.04,1.12.04,3.26,1.17,5.59.78,1.61,1.77,2.73,2.49,3.42,37.09,28.83,74.17,57.67,111.26,86.5,2.83,1.89,8.49,5.11,16.37,6.04,6.58.78,11.93-.38,15.05-1.31,19.96-8.77,39.93-17.54,59.89-26.31.49-.22,1.61-.81,2.45-2.08.66-1,.85-1.97.91-2.49v-12.23c-22.36,9.49-44.72,18.97-67.08,28.46-2.57.32-6.13.46-10.25-.28-6.17-1.12-10.68-3.71-13.26-5.47-39.62-30.36-79.23-60.72-118.85-91.08Z"/>
  </g>
</svg>