<?xml version="1.0" encoding="UTF-8"?>
<svg id="Capa_2" data-name="Capa 2" xmlns="http://www.w3.org/2000/svg" viewBox="0 0 824.52 557.05">
  <defs>
    <style>
      .cls-1 {
        stroke-width: 12px;
      }

      .cls-1, .cls-2 {
        fill: none;
        stroke: #0095c9;
        stroke-miterlimit: 10;
      }

      .cls-2 {
        stroke-width: 10px;
      }
    </style>
  </defs>
  <g id="Capa_1-2" data-name="Capa 1">
    <path class="cls-1" d="M110.55,484.15c16.13-16.13,32.27-32.27,48.4-48.4v-24.2c-8.07-8.07-16.13-16.13-24.2-24.2v-48.4c8.07-8.07,16.13-16.13,24.2-24.2v-48.4c-16.13-16.13-32.27-32.27-48.4-48.4v-24.2c8.07-8.07,16.13-16.13,24.2-24.2v-7.74c0-.68,0-1.36,0-2.04v-38.62c-8.07-8.07-16.13-16.13-24.2-24.2v-48.4h-24.2c-1.01-.03-2.04-.04-3.09-.05-1.59,0-3.14,0-4.65.05-4.96-.06-9.96-.07-14.99-.02-.49,0-.97.01-1.46.02h-7.74c-16.13,16.13-32.27,32.27-48.4,48.4v48.4c8.07,8.07,16.13,16.13,24.2,24.2v48.4c8.07,8.07,16.13,16.13,24.2,24.2v24.2c-8.07,8.07-16.13,16.13-24.2,24.2v24.2c8.07,8.07,16.13,16.13,24.2,24.2-16.13,16.13-32.27,32.27-48.4,48.4v24.2c16.13,16.13,32.27,32.27,48.4,48.4v60.75h56.15v-36.55Z"/>
    <path class="cls-1" d="M713.97,484.15c-16.13-16.13-32.27-32.27-48.4-48.4,0-8.07,0-16.13,0-24.2,8.07-8.07,16.13-16.13,24.2-24.2,0-16.13,0-32.27,0-48.4-8.07-8.07-16.13-16.13-24.2-24.2v-7.74c0-4.18,0-8.36,0-12.55,0-9.37,0-18.74,0-28.11,16.13-16.13,32.27-32.27,48.4-48.4,0-8.07,0-16.13,0-24.2-8.07-8.07-16.13-16.13-24.2-24.2v-7.74c0-.68,0-1.36,0-2.04,0-12.87,0-25.75,0-38.62,8.07-8.07,16.13-16.13,24.2-24.2,0-16.13,0-32.27,0-48.4,8.07,0,16.13,0,24.2,0,1.01-.03,2.04-.04,3.09-.05,1.59,0,3.14,0,4.65.05,4.96-.06,9.96-.07,14.99-.02.49,0,.97.01,1.46.02h7.74c16.13,16.13,32.27,32.27,48.4,48.4,0,7.31,0,14.63,0,21.94v18.72s0,7.74,0,7.74c-8.07,8.07-16.13,16.13-24.2,24.2,0,8.73,0,17.45,0,26.18,0,4.83,0,9.65,0,14.48v7.74c-8.07,8.07-16.13,16.13-24.2,24.2v24.2c8.07,8.07,16.13,16.13,24.2,24.2v24.2c-8.07,8.07-16.13,16.13-24.2,24.2,16.13,16.13,32.27,32.27,48.4,48.4,0,8.07,0,16.13,0,24.2-16.13,16.13-32.27,32.27-48.4,48.4,0,20.25,0,40.5,0,60.75-18.72,0-37.43,0-56.15,0,0-12.18,0-24.37,0-36.55Z"/>
    <path class="cls-2" d="M630.55,108.38c-20.53,0-41.05,0-61.58-.01,0-6.85,0-13.7-.01-20.55-6.84-6.83-13.67-13.67-20.51-20.5-4.69,0-19.53,0-20.54,0-6.84,6.85-13.68,13.7-20.52,20.55,0,6.84,0,13.67,0,20.51,6.84,6.84,13.68,13.68,20.52,20.53,20.53,0,41.06,0,61.58,0,0,6.83,0,13.67,0,20.5,6.84,6.85,13.69,13.7,20.53,20.55,6.84,0,13.67,0,20.51,0,6.85-6.85,13.71-13.69,20.56-20.54,0-1.32,0-16.46,0-20.51-6.85-6.85-13.7-13.69-20.55-20.54Z"/>
    <path class="cls-2" d="M291.82,135.99c6.85,6.84,13.7,13.68,20.54,20.52v20.48c-6.85,6.86-13.7,13.71-20.54,20.57h-20.54c-6.84-6.84-13.69-13.67-20.53-20.51-6.84,0-13.68,0-20.52,0-6.85,6.84-13.7,13.67-20.55,20.51h-20.5c-6.84-6.83-13.69-13.67-20.53-20.5.01-6.84.02-13.68.04-20.52,6.84-6.85,13.67-13.69,20.51-20.54h20.51c6.85,6.83,13.69,13.65,20.54,20.48,6.84,0,13.68.02,20.52.03,6.84-6.84,13.68-13.67,20.53-20.51h20.53Z"/>
    <path class="cls-2" d="M352.55,26.05c7.02-7.02,14.03-14.04,21.05-21.05,7.02,0,14.04,0,21.07,0,7.03,7.02,14.05,14.05,21.08,21.07,0,7.01.01,14.03.02,21.04-7.04,7.04-14.08,14.09-21.11,21.13,7.03,7.01,14.06,14.02,21.08,21.03,7.04-7.02,14.07-14.03,21.11-21.05,6.98.02,13.97.03,20.95.05,7.06,7,14.11,14.01,21.17,21.01,0,.75,0,4.08,0,4.82,0,5.41,0,10.83-.01,16.25-7.03,7.02-14.06,14.03-21.1,21.05-7.01,0-14.02,0-21.03,0-7.03-7.02-14.06-14.04-21.08-21.06-7.03,7.02-14.06,14.05-21.1,21.07,7.03,7.03,14.07,14.05,21.1,21.08,0,7.03,0,14.05,0,21.08-7.01,7.02-14.02,14.05-21.03,21.07-1.01,0-5.5,0-6.51,0-4.14,0-10.43,0-14.56,0-7.03-7.03-14.06-14.05-21.09-21.08,0-7.02,0-14.03,0-21.05,7.02-7.02,14.04-14.05,21.06-21.07,0-21.07,0-42.15.01-63.22-7.02-7.03-14.05-14.05-21.07-21.08,0-7.02,0-14.05,0-21.07Z"/>
    <line class="cls-2" x1="456.39" y1="98.38" x2="530.31" y2="98.38"/>
    <line class="cls-2" x1="288.81" y1="167.16" x2="376.58" y2="167.16"/>
    <line class="cls-2" x1="192.35" y1="166.78" x2="104.59" y2="166.78"/>
    <line class="cls-2" x1="715.77" y1="138.83" x2="628" y2="138.83"/>
    <rect class="cls-1" x="6" y="520.7" width="812.52" height="30.35"/>
  </g>
</svg>