<?xml version="1.0" encoding="UTF-8"?>
<svg id="Capa_2" data-name="Capa 2" xmlns="http://www.w3.org/2000/svg" viewBox="0 0 268.4 423.56">
  <defs>
    <style>
      .cls-1 {
        stroke-width: 8px;
      }

      .cls-1, .cls-2 {
        fill: none;
        stroke: #000;
        stroke-miterlimit: 10;
      }

      .cls-2 {
        stroke-width: 14px;
      }
    </style>
  </defs>
  <g id="Capa_1-2" data-name="Capa 1">
    <path class="cls-2" d="M7.25,370.89V52.77c.03-3.69.55-18.06,10.89-30.46,12.15-14.57,28.53-15.22,31.31-15.28h169.61c2.48-.11,18.64-.51,31.05,13.37,11.75,13.15,11.38,29.33,11.27,32.13v318.36c-.05,3.31-.64,18.87-12.35,31.65-12.16,13.26-27.34,13.75-30.26,13.78H49.54c-1.85.25-19.28,2.32-32.16-12.14-12.19-13.69-10.4-31.04-10.13-33.29Z"/>
    <path class="cls-1" d="M15.97,26.66h78.67c6.9,4.7,13.79,9.4,20.69,14.11,13.09-.02,26.18-.03,39.27-.05,6.35-4.69,12.7-9.37,19.05-14.06h78.78c-.35-1.89-1.88-9.14-7.78-14.19-4.42-3.79-8.96-4.33-10.84-4.43H33.72c-1.76.21-6.74,1.1-11.31,5.81-4.7,4.86-6.06,10.79-6.44,12.81Z"/>
    <path class="cls-1" d="M252.43,396.81h-78.67c-6.9-4.7-13.79-9.4-20.69-14.11-13.09.02-26.18.03-39.27.05-6.35,4.69-12.7,9.37-19.05,14.06H15.97c.35,1.89,1.88,9.14,7.78,14.19,4.42,3.79,8.96,4.33,10.84,4.43h200.1c1.76-.21,6.74-1.1,11.31-5.81,4.7-4.86,6.06-10.79,6.44-12.81Z"/>
  </g>
</svg>