<?xml version="1.0" encoding="UTF-8"?>
<svg id="Capa_2" data-name="Capa 2" xmlns="http://www.w3.org/2000/svg" viewBox="0 0 697.96 439.63">
  <defs>
    <style>
      .cls-1 {
        fill: none;
        stroke: #ef7a70;
        stroke-miterlimit: 10;
        stroke-width: 6px;
      }
    </style>
  </defs>
  <g id="Capa_1-2" data-name="Capa 1">
    <path class="cls-1" d="M627.63,74.75c-22.5-22.5-44.99-45-67.49-67.51h-33.7c-11.26,11.26-22.51,22.51-33.77,33.77h-67.49c-11.24-11.26-22.47-22.51-33.71-33.77h-91.11v33.73h-10.12V7.25h0c-11.25,11.26-22.5,22.51-33.75,33.77-5.16,0-28.35,0-33.51,0-2.7,0-21.14,0-23.84,0,0,11.25,0,22.49,0,33.74h-10.12c0-11.25,0-22.49,0-33.74-11.25,11.25-22.5,22.49-33.75,33.74h-33.75c-11.25-11.25-22.5-22.49-33.75-33.74v33.73h-10.12v-33.73h-23.63c-11.26,11.25-22.52,22.49-33.79,33.74,0,11.24.02,22.48.02,33.72h337.34v10.12H20.27c0,7.88.01,15.75.02,23.63h33.74v10.12c-11.25,0-22.49,0-33.74,0,22.49,22.49,44.98,44.98,67.47,67.47h57.37c0-11.25,0-22.49,0-33.74h10.12v33.74c11.25-11.25,22.51-22.49,33.76-33.74h57.35c0-11.25,0-22.49,0-33.74h10.12v33.74c11.25-11.25,22.5-22.49,33.74-33.74h67.46c11.27,11.24,22.53,22.49,33.8,33.73v-33.73h10.12v33.74h57.34c11.25,11.25,22.5,22.49,33.74,33.74h67.46c22.49-22.49,44.99-44.98,67.48-67.47h67.33v-77.59h-67.33Z"/>
    <path class="cls-1" d="M70.46,364.88c22.5,22.5,44.99,45,67.49,67.51h57.33v-33.73h10.12v33.73c11.25-11.26,22.5-22.51,33.76-33.77,19.51-.11,39.13-.16,58.86-.14,10.78,0,21.51.05,32.22.1v-33.69h10.12v33.74c11.25-11.25,22.5-22.49,33.74-33.74,11.25,0,22.5,0,33.75,0,22.49,22.5,44.98,45,67.47,67.51v-33.74h10.12v33.74h57.34c11.25-11.26,22.5-22.51,33.76-33.77h67.47c11.23-11.25,22.47-22.49,33.7-33.74h-33.73v-10.12h33.73c0-22.49,0-44.98,0-67.47-11.23-11.25-22.47-22.49-33.7-33.74v33.74h-10.12c0-11.25,0-22.49,0-33.74h-57.35c-11.25,11.25-22.51,22.49-33.77,33.74h-67.45c-22.49-22.49-44.98-44.98-67.47-67.47v33.74h-10.12v-33.74h-57.39c-22.48,22.49-44.97,44.98-67.45,67.47h-67.47c-11.25-11.25-22.5-22.49-33.75-33.74h-67.48c-11.25,11.25-22.49,22.49-33.74,33.74H3v33.75h337.36v10.12H3v33.72h67.46Z"/>
  </g>
</svg>