<?xml version="1.0" encoding="UTF-8"?>
<svg id="Capa_2" data-name="Capa 2" xmlns="http://www.w3.org/2000/svg" viewBox="0 0 189.77 424.28">
  <defs>
    <style>
      .cls-1 {
        fill: none;
        stroke: #000;
        stroke-miterlimit: 10;
        stroke-width: 14px;
      }
    </style>
  </defs>
  <g id="Capa_1-2" data-name="Capa 1">
    <path class="cls-1" d="M7,65.65C26.52,46.1,46.05,26.55,65.57,7c19.49,0,38.98,0,58.48,0,19.57,19.55,39.14,39.1,58.72,58.65,0,19.54,0,39.09,0,58.63-19.52,19.54-39.03,39.08-58.55,58.62,0,19.52,0,39.05,0,58.57,19.52,19.56,39.03,39.11,58.55,58.67,0,18.03,0,36.05,0,54.08v4.46c-19.51,19.54-39.02,39.07-58.53,58.61-19.53-.04-39.06-.07-58.59-.11-19.55-19.51-39.1-39.03-58.64-58.54,0-19.52,0-39.03,0-58.55,19.49-19.54,38.98-39.09,58.47-58.63.03-19.53.05-39.05.08-58.58-19.52-19.53-39.03-39.06-58.55-58.6,0-14.53,0-29.05,0-43.58,0-5.01,0-10.03,0-15.04Z"/>
  </g>
</svg>