<?xml version="1.0" encoding="UTF-8"?>
<svg id="Capa_2" data-name="Capa 2" xmlns="http://www.w3.org/2000/svg" viewBox="0 0 421.11 421.11">
  <defs>
    <style>
      .cls-1 {
        stroke-width: 6px;
      }

      .cls-1, .cls-2 {
        fill: none;
        stroke: #000;
        stroke-miterlimit: 10;
      }

      .cls-2 {
        stroke-width: 14px;
      }
    </style>
  </defs>
  <g id="Capa_1-2" data-name="Capa 1">
    <path class="cls-2" d="M278.49,414.11h-135.76c-45.24-45.25-90.49-90.49-135.73-135.74v-135.78C52.26,97.39,97.53,52.2,142.79,7h135.66c45.22,45.2,90.44,90.4,135.65,135.6,0,45.24,0,90.47,0,135.71-45.2,45.27-90.41,90.53-135.61,135.8Z"/>
    <polygon class="cls-1" points="249.51 205.38 215.59 205.38 215.59 171.45 205.41 171.45 205.41 205.38 171.48 205.38 171.48 215.55 205.41 215.55 205.41 249.48 215.59 249.48 215.59 215.55 249.51 215.55 249.51 205.38"/>
  </g>
</svg>