<?xml version="1.0" encoding="UTF-8"?>
<svg id="Capa_2" data-name="Capa 2" xmlns="http://www.w3.org/2000/svg" viewBox="0 0 139.03 324.53">
  <defs>
    <style>
      .cls-1 {
        fill: #fff;
      }
    </style>
  </defs>
  <g id="Capa_1-2" data-name="Capa 1">
    <path class="cls-1" d="M0,46.39C15.44,30.93,30.89,15.46,46.33,0c15.42,0,30.84,0,46.25,0,15.48,15.46,30.96,30.93,46.44,46.39,0,15.46,0,30.92,0,46.38-15.44,15.46-30.88,30.91-46.31,46.37,0,15.44,0,30.88,0,46.33,15.44,15.47,30.87,30.94,46.31,46.41v42.77c0,1.18,0,2.35,0,3.53-15.43,15.45-30.87,30.91-46.3,46.36-15.45-.03-30.9-.06-46.34-.08C30.92,309.01,15.46,293.57,0,278.14v-46.32c15.42-15.46,30.83-30.92,46.25-46.38.02-15.45.04-30.89.06-46.34C30.88,123.66,15.44,108.21,0,92.76c0-11.49,0-22.98,0-34.47,0-3.97,0-7.93,0-11.9Z"/>
  </g>
</svg>