<?xml version="1.0" encoding="UTF-8"?>
<svg id="Capa_2" data-name="Capa 2" xmlns="http://www.w3.org/2000/svg" viewBox="0 0 416.48 277.63">
  <defs>
    <style>
      .cls-1 {
        fill: #a8bc54;
      }
    </style>
  </defs>
  <g id="Capa_1-2" data-name="Capa 1">
    <path class="cls-1" d="M370.24,0c15.41,15.41,30.82,30.82,46.24,46.23v46.26c-15.43,15.43-30.85,30.87-46.28,46.3-15.4.01-30.81.02-46.21.03-15.47-15.46-30.93-30.91-46.4-46.37-15.4,15.44-30.8,30.87-46.19,46.31,15.41,15.45,30.82,30.91,46.23,46.36-.03,15.34-.07,30.68-.1,46.02-15.38,15.5-30.76,30.99-46.14,46.49-1.64,0-8.95,0-10.59,0-11.89,0-23.78-.01-35.68-.03-15.41-15.44-30.82-30.89-46.23-46.33,0-15.39,0-30.78,0-46.18,15.42-15.44,30.84-30.87,46.25-46.31-15.42-15.44-30.85-30.89-46.27-46.33-15.43,15.45-30.86,30.89-46.3,46.34-15.43,0-30.86,0-46.29,0C30.85,123.39,15.42,108,0,92.6c0-2.22,0-12.07,0-14.29,0-9.08,0-22.9.02-31.99C15.45,30.88,30.88,15.44,46.32,0c15.41,0,30.81,0,46.22,0,15.43,15.42,30.85,30.83,46.28,46.25,46.28,0,92.57.02,138.85.03C293.1,30.85,308.53,15.42,323.96,0c15.43,0,30.85,0,46.28,0Z"/>
  </g>
</svg>