<?xml version="1.0" encoding="UTF-8"?>
<svg id="Capa_2" data-name="Capa 2" xmlns="http://www.w3.org/2000/svg" viewBox="0 0 696.67 696.67">
  <defs>
    <style>
      .cls-1 {
        fill: #10799b;
      }

      .cls-2 {
        fill: #a9bc53;
      }

      .cls-3 {
        fill: #0e789a;
      }

      .cls-4 {
        fill: #cab6d8;
      }

      .cls-5 {
        fill: #a8bc54;
      }

      .cls-6 {
        fill: #ef7b71;
      }
    </style>
  </defs>
  <g id="Capa_1-2" data-name="Capa 1">
    <path class="cls-2" d="M453.75,21.4h-214.7l-3.63,3.62c-52.47,52.4-104.95,104.79-157.42,157.19l17.49,17.52c52.47-52.4,104.95-104.79,157.42-157.19l-8.75-8.76v12.38h209.58v-24.76h0Z"/>
    <path class="cls-1" d="M243.49,675.28h214.7l3.62-3.62c52.47-52.4,104.95-104.79,157.42-157.19l-17.49-17.52c-52.47,52.4-104.95,104.79-157.42,157.19l8.75,8.76v-12.38h-209.58v24.76h0Z"/>
    <path class="cls-6" d="M21.4,243.11c0,69.86,0,139.72,0,209.58v5.12l3.62,3.62c52.4,52.47,104.79,104.95,157.19,157.42l17.52-17.49c-52.4-52.47-104.79-104.95-157.19-157.42l-8.76,8.75h12.38v-209.58h-24.76Z"/>
    <path class="cls-4" d="M675.28,453.36v-214.7l-3.62-3.62c-52.4-52.47-104.79-104.95-157.19-157.42l-17.52,17.49c52.4,52.47,104.79,104.95,157.19,157.42l8.76-8.75h-12.38c0,69.86,0,139.72,0,209.58h24.76,0Z"/>
    <path class="cls-6" d="M263.18,182.92c-4.97,9.8-9.94,19.6-14.91,29.4,4.82,14.75,9.65,29.49,14.47,44.24-14.89,29.38-29.78,58.76-44.67,88.14-14.75,4.83-29.5,9.66-44.25,14.48-4.96,9.79-9.93,19.59-14.89,29.38,4.82,14.75,9.64,29.51,14.46,44.26,9.79,4.97,19.59,9.94,29.38,14.9,14.77-4.83,29.53-9.66,44.3-14.49,4.97-9.8,9.93-19.59,14.9-29.39-4.84-14.75-9.68-29.51-14.52-44.26,14.76-4.84,29.52-9.67,44.28-14.5,4.82,14.76,9.64,29.52,14.45,44.28,9.8,4.97,19.6,9.93,29.4,14.9,14.76-4.83,29.52-9.66,44.28-14.49,4.97-9.8,9.93-19.59,14.9-29.39-4.84-14.75-9.68-29.51-14.52-44.26-9.79-4.97-19.59-9.93-29.38-14.89-14.75,4.83-29.5,9.66-44.24,14.48-4.82-14.75-9.65-29.51-14.47-44.26,14.76-4.82,29.51-9.64,44.27-14.46,4.97-9.8,9.94-19.6,14.91-29.4-4.84-14.75-9.68-29.5-14.52-44.25-9.79-4.97-19.59-9.93-29.38-14.9-14.75,4.82-29.49,9.64-44.24,14.46Z"/>
    <path class="cls-3" d="M398.92,452.99c-14.41-.8-28.82-1.6-43.23-2.4-7.61,6.8-15.22,13.61-22.83,20.41-.81,14.41-1.61,28.82-2.42,43.23,6.8,7.61,13.6,15.21,20.4,22.81,14.41.8,28.82,1.61,43.23,2.41,7.61-6.8,15.22-13.61,22.83-20.41.8-14.41,1.61-28.82,2.41-43.23,7.61-6.8,15.21-13.61,22.82-20.41,14.39.83,28.79,1.67,43.18,2.5,7.63-6.83,15.25-13.67,22.88-20.5.8-14.41,1.61-28.82,2.41-43.23-6.8-7.6-13.6-15.21-20.4-22.81-14.41-.8-28.82-1.6-43.23-2.41-7.63,6.85-15.27,13.69-22.9,20.54-.33,6.04-1.15,20.92-1.48,26.96-.13,2.38-.75,13.75-.88,16.14-3.77,3.4-7.56,6.8-11.37,10.21-3.82,3.42-7.64,6.82-11.45,10.2Z"/>
    <path class="cls-5" d="M489.92,271.2c2.52-9.08,5.04-18.15,7.55-27.23-6.56-11.59-13.11-23.17-19.67-34.76-11.8-3.27-23.59-6.55-35.39-9.82-11.59,6.55-23.19,13.1-34.78,19.66-2.52,9.08-5.04,18.15-7.55,27.23,11.8,3.27,23.6,6.55,35.4,9.82-2.52,9.08-5.04,18.16-7.56,27.25,6.56,11.59,13.12,23.17,19.67,34.76,11.8,3.27,23.6,6.55,35.39,9.82,11.59-6.55,23.18-13.1,34.76-19.66,2.52-9.08,5.04-18.16,7.56-27.25-6.62-1.84-30.22-8.38-35.4-9.82Z"/>
    <path class="cls-5" d="M431.24,67.55h-22.52c-7.51-7.51-15.01-15.01-22.52-22.52v-22.53c7.51-7.5,15.02-15,22.53-22.5h22.51c7.5,7.5,15.01,15,22.51,22.5v22.52c-7.5,7.51-15,15.02-22.5,22.53Z"/>
    <path class="cls-4" d="M674.17,453.36h-22.53c-7.51-7.51-15.01-15.01-22.52-22.52v-22.53c7.51-7.5,15.02-15,22.53-22.5h22.51c7.5,7.5,15.01,15,22.51,22.5v22.52c-7.5,7.51-15,15.02-22.5,22.53Z"/>
    <path class="cls-3" d="M288.54,696.67h-22.53c-7.51-7.51-15.01-15.01-22.52-22.52v-22.53c7.51-7.5,15.02-15,22.53-22.5h22.51c7.5,7.5,15,15,22.51,22.5v22.52c-7.5,7.51-15,15.02-22.5,22.53Z"/>
    <path class="cls-6" d="M45.05,310.65h-22.52c-7.51-7.51-15.01-15.01-22.52-22.52v-22.53c7.51-7.5,15.02-15,22.53-22.5h22.51c7.5,7.5,15.01,15,22.51,22.5v22.52c-7.5,7.51-15,15.02-22.5,22.53Z"/>
  </g>
</svg>