<?xml version="1.0" encoding="UTF-8"?>
<svg id="Capa_2" data-name="Capa 2" xmlns="http://www.w3.org/2000/svg" viewBox="0 0 205.87 92.11">
  <defs>
    <style>
      .cls-1 {
        stroke: #ef7a70;
        stroke-width: 2px;
      }

      .cls-1, .cls-2 {
        fill: none;
        stroke-miterlimit: 10;
      }

      .cls-2 {
        stroke: #fff;
        stroke-width: 7px;
      }
    </style>
  </defs>
  <g id="Capa_1-2" data-name="Capa 1">
    <path class="cls-2" d="M32.28,88.54c-9.46-9.44-18.91-18.89-28.37-28.33v-28.28C13.36,22.46,22.82,13,32.28,3.53h28.36c9.45,9.44,18.9,18.88,28.35,28.32,9.44,0,18.88,0,28.33,0,9.46-9.44,18.92-18.88,28.38-28.32h28.31c9.45,9.44,18.9,18.87,28.35,28.31-.02,9.45-.03,18.89-.05,28.34-9.44,9.45-18.88,18.91-28.32,28.36h-28.32c-9.45-9.43-18.9-18.85-28.36-28.28-9.44-.01-18.89-.03-28.33-.04-9.45,9.44-18.89,18.88-28.34,28.32h-28.35Z"/>
    <line class="cls-1" x1=".24" y1="60.34" x2="205.87" y2="60.34"/>
    <line class="cls-1" y1="31.73" x2="205.85" y2="31.73"/>
    <line class="cls-1" x1="32.32" y1=".07" x2="32.32" y2="92.04"/>
    <line class="cls-1" x1="60.93" x2="60.93" y2="92.03"/>
    <line class="cls-1" x1="89.54" x2="89.54" y2="92.03"/>
    <line class="cls-1" x1="118.15" x2="118.15" y2="92.03"/>
    <line class="cls-1" x1="146.76" x2="146.76" y2="92.01"/>
    <line class="cls-1" x1="173.62" x2="173.62" y2="92.11"/>
  </g>
</svg>