<?xml version="1.0" encoding="UTF-8"?>
<svg id="Capa_2" data-name="Capa 2" xmlns="http://www.w3.org/2000/svg" viewBox="0 0 1071.55 233.8">
  <defs>
    <style>
      .cls-1 {
        fill: #0095c8;
      }

      .cls-2 {
        fill: #cab6d8;
      }

      .cls-3 {
        fill: #a8bc54;
      }

      .cls-4 {
        fill: #ef7b71;
      }
    </style>
  </defs>
  <g id="Capa_1-2" data-name="Capa 1">
    <path class="cls-4" d="M0,77.96C25.95,51.97,51.9,25.99,77.86,0h77.72c26.01,25.99,52.03,51.97,78.04,77.96v77.93c-25.94,25.97-51.88,51.94-77.82,77.91h-37.91c-13.35-.01-26.71-.03-40.06-.04C51.88,207.8,25.94,181.83,0,155.87v-77.91Z"/>
    <path class="cls-3" d="M558.62,77.96c25.95-25.99,51.9-51.97,77.86-77.96h77.72c26.01,25.99,52.03,51.97,78.04,77.96v77.93c-25.94,25.97-51.88,51.94-77.82,77.91h-37.91c-13.35-.01-26.71-.03-40.06-.04-25.94-25.96-51.88-51.92-77.83-77.89v-77.91Z"/>
    <path class="cls-2" d="M837.93,77.96c25.95-25.99,51.9-51.97,77.86-77.96h77.72c26.01,25.99,52.03,51.97,78.04,77.96v77.93c-25.94,25.97-51.88,51.94-77.82,77.91h-37.91c-13.35-.01-26.71-.03-40.06-.04-25.94-25.96-51.88-51.92-77.83-77.89v-77.91Z"/>
    <path class="cls-1" d="M279.31,77.96c25.95-25.99,51.9-51.97,77.86-77.96h77.72c26.01,25.99,52.03,51.97,78.04,77.96v77.93c-25.94,25.97-51.88,51.94-77.82,77.91h-37.91c-13.35-.01-26.71-.03-40.06-.04-25.94-25.96-51.88-51.92-77.83-77.89v-77.91Z"/>
  </g>
</svg>