<?xml version="1.0" encoding="UTF-8"?>
<svg id="Capa_2" data-name="Capa 2" xmlns="http://www.w3.org/2000/svg" viewBox="0 0 590.97 887.6">
  <defs>
    <style>
      .cls-1 {
        fill: #fff;
      }

      .cls-1, .cls-2 {
        stroke-linejoin: round;
      }

      .cls-1, .cls-2, .cls-3, .cls-4, .cls-5 {
        stroke: #0095c9;
      }

      .cls-1, .cls-5 {
        stroke-width: 8px;
      }

      .cls-2, .cls-3, .cls-4, .cls-5 {
        fill: none;
      }

      .cls-2, .cls-4 {
        stroke-width: 10px;
      }

      .cls-3 {
        stroke-width: 4px;
      }

      .cls-3, .cls-4, .cls-5 {
        stroke-miterlimit: 10;
      }

      .cls-5 {
        stroke-dasharray: 10 10;
      }
    </style>
  </defs>
  <g id="Capa_1-2" data-name="Capa 1">
    <path class="cls-1" d="M301.76,35.17c-1.8-1.56-3.6-3.13-5.4-4.69-7.1-6.18-14.21-12.36-21.31-18.54,0,9.08,0,18.15,0,27.23-3.04-2.65-6.08-5.3-9.13-7.94,0-9.08,0-18.15,0-27.23-20.28.5-40.56,1-60.85,1.49,0,15.44,0,30.87,0,46.31,10.14,8.83,20.28,17.65,30.42,26.48,0,2.72,0,5.45,0,8.17-10.14-8.83-20.28-17.65-30.42-26.48,10.14,17.91,20.28,35.82,30.42,53.73,0,15.43,0,30.86,0,46.29,10.14,8.83,20.28,17.65,30.42,26.48,0,2.72,0,5.45,0,8.17-10.14-8.83-20.28-17.65-30.42-26.48,10.14,17.91,20.28,35.81,30.42,53.72,0,18.15,0,36.3,0,54.45-10.14.27-20.28.53-30.42.8l30.42,26.48v8.17s-30.42-26.48-30.42-26.48c0,6.51,0,13.02,0,19.53,0,8.92,0,17.83,0,26.75-10.14.25-20.28.5-30.42.76,0,18.15,0,36.3,0,54.45,20.28,35.81,40.56,71.62,60.85,107.43,0,18.12,0,36.23,0,54.35,11.94,10.4,23.89,20.79,35.83,31.19,0-87.47,0-174.93,0-262.4,0-94.06,0-188.11,0-282.17Z"/>
    <path class="cls-1" d="M323.34,511.3c20.4-23.77,40.8-47.54,61.21-71.32,0-15.42,0-30.85,0-46.27l-30.59,8.42v-8.17s30.59-8.42,30.59-8.42c-10.21-6.27-20.41-12.55-30.62-18.82-.1-15.72-.15-31.55-.13-47.47,0-8.7.04-17.37.09-26.03l-30.55,8.41v-8.17s30.59-8.42,30.59-8.42c-10.2-6.27-20.39-12.55-30.59-18.82,0-9.08,0-18.16,0-27.24,20.4-23.77,40.8-47.53,61.21-71.3l-30.59,8.42v-8.17s30.59-8.42,30.59-8.42c0-15.43,0-30.85,0-46.28-10.21-6.27-20.41-12.55-30.62-18.82,0-18.15,0-36.31,0-54.46-10.2-6.26-20.39-12.52-30.59-18.79v27.23s-9.18,2.53-9.18,2.53v-27.23c-20.39,5.61-40.78,11.22-61.18,16.83-10.2,11.87-20.39,23.74-30.59,35.62,10.2-2.81,20.39-5.61,30.59-8.42,0,2.72,0,5.45,0,8.17-10.2,2.81-20.39,5.61-30.59,8.42,0,15.43,0,30.86,0,46.29,10.2,6.28,20.39,12.56,30.59,18.84,0,18.15,0,36.29,0,54.44-20.39,23.76-40.78,47.52-61.18,71.29l30.59-8.42v8.17s-30.59,8.42-30.59,8.42v13.97c0,10.79,0,21.57,0,32.36,20.39,12.54,40.78,25.07,61.18,37.61,0,18.15,0,36.31,0,54.46-10.2,11.89-20.39,23.77-30.59,35.66,0,18.15,0,36.31,0,54.46,10.2,6.27,20.39,12.54,30.59,18.81,0,18.15,0,36.3,0,54.45,10.2-2.81,20.4-5.61,30.6-8.42l9.18-2.53c10.19-2.8,20.38-5.61,30.57-8.41,0-18.15,0-36.3,0-54.45Z"/>
    <path class="cls-1" d="M337.6,556.45c20.29-.5,40.58-.99,60.88-1.49,0-9.07,0-18.13,0-27.2-10.15-17.92-20.3-35.84-30.45-53.76,0-18.16,0-36.32,0-54.47,10.15-.23,20.3-.47,30.45-.7,0-24.51,0-49.03,0-73.54l-30.42-26.48v-8.17s30.42,26.48,30.42,26.48c-10.15-17.92-20.3-35.83-30.45-53.75,0-4.16,0-22.88,0-27.04,0-2.18,0-17.06,0-19.24-10.14-8.83-20.28-17.66-30.42-26.49,0-2.72,0-5.45,0-8.17,10.14,8.83,20.28,17.65,30.42,26.48-10.14-17.91-20.28-35.81-30.42-53.72,0-9.08,0-18.16,0-27.24,10.14-.25,20.28-.51,30.42-.76l-30.42-26.48v-8.17s30.42,26.48,30.42,26.48c0-6.36,0-12.71,0-19.07-10.14-17.92-20.28-35.83-30.42-53.75-10.14-8.82-20.27-17.63-30.41-26.45-3.51-2.99-7.02-5.97-10.53-8.96h0c0,87.45,0,174.9,0,262.35,0,93.99,0,187.98,0,281.97,13.64,11.89,27.29,23.79,40.93,35.68,0-18.11,0-36.23,0-54.34Z"/>
    <path class="cls-4" d="M7.38,709.98l94.28-66.31,220.13-19.4,191.31,41.14c23.49,27.38,46.98,54.76,70.47,82.13-32.63,22.58-65.26,45.16-97.89,67.74-73.38,6.47-146.75,12.93-220.13,19.4-62.57-14.19-125.13-28.38-187.7-42.57-23.49-27.38-46.98-54.76-70.47-82.13Z"/>
    <path class="cls-3" d="M339.25,725.96c-1.89-2.03-3.79-4.07-5.68-6.1l-38.69,3.41-16.67-19.43c-3.18.28-6.36.55-9.55.83,5.53,6.48,11.06,12.97,16.59,19.45l-39.02,3.44c1.6,2.04,3.2,4.08,4.8,6.12,13.14-1.15,26.29-2.3,39.43-3.45,5.54,6.49,11.07,12.98,16.61,19.47,3.25-.28,6.49-.57,9.74-.85l-16.7-19.46c13.04-1.14,26.08-2.28,39.12-3.42Z"/>
    <path class="cls-2" d="M7.38,709.98c-.03,20.49-.05,40.97-.08,61.46,20,22.46,39.99,44.93,59.99,67.39,67.67,14.59,135.33,29.18,203,43.77,74.66-6.58,149.32-13.16,223.98-19.74,29.79-20.76,59.58-41.52,89.36-62.27v-52.49c-32.65,22.4-65.31,44.79-97.96,67.19-73.38,6.47-146.75,12.93-220.13,19.4-62.57-14.19-125.13-28.38-187.7-42.57-23.49-27.38-46.98-54.76-70.47-82.13Z"/>
    <line class="cls-5" x1="293.32" y1="586.63" x2="293.32" y2="729.48"/>
  </g>
</svg>