<?xml version="1.0" encoding="UTF-8"?>
<svg id="Capa_2" data-name="Capa 2" xmlns="http://www.w3.org/2000/svg" viewBox="0 0 710.83 585.55">
  <defs>
    <style>
      .cls-1 {
        stroke-dasharray: 10 10;
      }

      .cls-1, .cls-2 {
        stroke-width: 12px;
      }

      .cls-1, .cls-2, .cls-3 {
        fill: none;
        stroke: #0095c9;
        stroke-miterlimit: 10;
      }

      .cls-3 {
        stroke-width: 6px;
      }
    </style>
  </defs>
  <g id="Capa_1-2" data-name="Capa 1">
    <path class="cls-1" d="M509.21,259.81v-49.35c-34.46-34.45-68.92-68.9-103.38-103.35h-103.31c-34.45,34.47-68.89,68.94-103.34,103.41v49.29"/>
    <polygon class="cls-2" points="317.09 356.9 242.88 431.12 242.88 505.33 317.09 579.55 391.31 579.55 465.52 505.33 465.52 431.12 391.31 356.9 317.09 356.9"/>
    <path class="cls-3" d="M340.26,304.69c4.99-5.54,9.98-11.09,14.97-16.63,5.11,5.54,10.22,11.09,15.34,16.63"/>
    <line class="cls-3" x1="355.42" y1="290.66" x2="355.42" y2="329.43"/>
    <polyline class="cls-2" points="6 4.12 6 259.81 704.8 259.81 704.83 0"/>
  </g>
</svg>