<?xml version="1.0" encoding="UTF-8"?>
<svg id="Capa_2" data-name="Capa 2" xmlns="http://www.w3.org/2000/svg" viewBox="0 0 938.69 347.24">
  <defs>
    <style>
      .cls-1 {
        fill: #0095c9;
      }

      .cls-1, .cls-2, .cls-3 {
        stroke: #0095c9;
        stroke-miterlimit: 10;
      }

      .cls-2 {
        stroke-width: 12px;
      }

      .cls-2, .cls-3 {
        fill: none;
      }

      .cls-3 {
        stroke-width: 10px;
      }
    </style>
  </defs>
  <g id="Capa_1-2" data-name="Capa 1">
    <path class="cls-2" d="M552.35,130.3c8.37-8.38,16.73-16.76,25.1-25.13h25.06c8.39,8.38,16.77,16.76,25.16,25.13v25.12c-8.36,8.37-16.73,16.75-25.09,25.12h-12.22c-4.31,0-8.61,0-12.92-.01-8.36-8.37-16.73-16.74-25.09-25.11v-25.12Z"/>
    <path class="cls-3" d="M487.86,302.75V43.43c.02-3.01.44-14.72,8.76-24.83,9.78-11.88,22.95-12.41,25.19-12.46h136.47c2-.09,15-.42,24.98,10.9,9.46,10.72,9.16,23.91,9.07,26.19v259.51c-.04,2.7-.51,15.39-9.94,25.8-9.78,10.81-22,11.21-24.35,11.23h-136.16c-1.48.21-15.51,1.89-25.88-9.9-9.81-11.16-8.37-25.3-8.15-27.14Z"/>
    <path class="cls-1" d="M494.38,23.55h63.3c5.55,3.49,11.1,6.99,16.65,10.48,10.53-.01,21.06-.03,31.59-.04,5.11-3.48,10.22-6.96,15.33-10.44h63.39c-.28-1.4-1.51-6.79-6.26-10.54-3.56-2.81-7.21-3.22-8.72-3.29h-161c-1.42.16-5.43.81-9.1,4.32-3.79,3.61-4.87,8.02-5.18,9.51Z"/>
    <path class="cls-1" d="M684.64,322.77h-63.3c-5.55-3.49-11.1-6.99-16.65-10.48-10.53.01-21.06.03-31.59.04-5.11,3.48-10.22,6.96-15.33,10.44h-63.39c.28,1.4,1.51,6.79,6.26,10.54,3.56,2.81,7.21,3.22,8.72,3.29h161c1.42-.16,5.43-.81,9.1-4.32,3.79-3.61,4.87-8.02,5.18-9.51Z"/>
    <path class="cls-2" d="M793.68,132.76c8.37-8.38,16.73-16.76,25.1-25.13h25.06c8.39,8.38,16.77,16.76,25.16,25.13v25.12c-8.36,8.37-16.73,16.75-25.09,25.12h-12.22c-4.31,0-8.61,0-12.92-.01-8.36-8.37-16.73-16.74-25.09-25.11v-25.12Z"/>
    <path class="cls-3" d="M729.19,305.01V45.69c.02-3.01.44-14.72,8.76-24.83,9.78-11.88,22.95-12.41,25.19-12.46h136.47c2-.09,15-.42,24.98,10.9,9.46,10.72,9.16,23.91,9.07,26.19v259.51c-.04,2.7-.51,15.39-9.94,25.8-9.78,10.81-22,11.21-24.35,11.23h-136.16c-1.48.21-15.51,1.89-25.88-9.9-9.81-11.16-8.37-25.3-8.15-27.14Z"/>
    <path class="cls-1" d="M735.71,25.81h63.3c5.55,3.49,11.1,6.99,16.65,10.48,10.53-.01,21.06-.03,31.59-.04,5.11-3.48,10.22-6.96,15.33-10.44h63.39c-.28-1.4-1.51-6.79-6.26-10.54-3.56-2.81-7.21-3.22-8.72-3.29h-161c-1.42.16-5.43.81-9.1,4.32-3.79,3.61-4.87,8.02-5.18,9.51Z"/>
    <path class="cls-1" d="M925.97,325.03h-63.3c-5.55-3.49-11.1-6.99-16.65-10.48-10.53.01-21.06.03-31.59.04-5.11,3.48-10.22,6.96-15.33,10.44h-63.39c.28,1.4,1.51,6.79,6.26,10.54,3.56,2.81,7.21,3.22,8.72,3.29h161c1.42-.16,5.43-.81,9.1-4.32,3.79-3.61,4.87-8.02,5.18-9.51Z"/>
    <path class="cls-2" d="M69.69,129.08c8.37-8.38,16.73-16.76,25.1-25.13h25.06c8.39,8.38,16.77,16.76,25.16,25.13v25.12c-8.36,8.37-16.73,16.75-25.09,25.12h-12.22c-4.31,0-8.61,0-12.92-.01-8.36-8.37-16.73-16.74-25.09-25.11v-25.12Z"/>
    <path class="cls-3" d="M5.2,301.62V42.31c.02-3.01.44-14.72,8.76-24.83,9.78-11.88,22.95-12.41,25.19-12.46h136.47c2-.09,15-.42,24.98,10.9,9.46,10.72,9.16,23.91,9.07,26.19v259.51c-.04,2.7-.51,15.39-9.94,25.8-9.78,10.81-22,11.21-24.35,11.23H39.23c-1.48.21-15.51,1.89-25.88-9.9-9.81-11.16-8.37-25.3-8.15-27.14Z"/>
    <path class="cls-1" d="M11.72,22.43h63.3c5.55,3.49,11.1,6.99,16.65,10.48,10.53-.01,21.06-.03,31.59-.04,5.11-3.48,10.22-6.96,15.33-10.44h63.39c-.28-1.4-1.51-6.79-6.26-10.54-3.56-2.81-7.21-3.22-8.72-3.29H25.99c-1.42.16-5.43.81-9.1,4.32-3.79,3.61-4.87,8.02-5.18,9.51Z"/>
    <path class="cls-1" d="M201.97,321.65h-63.3c-5.55-3.49-11.1-6.99-16.65-10.48-10.53.01-21.06.03-31.59.04-5.11,3.48-10.22,6.96-15.33,10.44H11.72c.28,1.4,1.51,6.79,6.26,10.54,3.56,2.81,7.21,3.22,8.72,3.29h161c1.42-.16,5.43-.81,9.1-4.32,3.79-3.61,4.87-8.02,5.18-9.51Z"/>
    <path class="cls-2" d="M311.02,131.53c8.37-8.38,16.73-16.76,25.1-25.13h25.06c8.39,8.38,16.77,16.76,25.16,25.13v25.12c-8.36,8.37-16.73,16.75-25.09,25.12h-12.22c-4.31,0-8.61,0-12.92-.01-8.36-8.37-16.73-16.74-25.09-25.11v-25.12Z"/>
    <path class="cls-3" d="M246.53,303.88V44.56c.02-3.01.44-14.72,8.76-24.83,9.78-11.88,22.95-12.41,25.19-12.46h136.47c2-.09,15-.42,24.98,10.9,9.46,10.72,9.16,23.91,9.07,26.19v259.51c-.04,2.7-.51,15.39-9.94,25.8-9.78,10.81-22,11.21-24.35,11.23h-136.16c-1.48.21-15.51,1.89-25.88-9.9-9.81-11.16-8.37-25.3-8.15-27.14Z"/>
    <path class="cls-1" d="M253.05,24.68h63.3c5.55,3.49,11.1,6.99,16.65,10.48,10.53-.01,21.06-.03,31.59-.04,5.11-3.48,10.22-6.96,15.33-10.44h63.39c-.28-1.4-1.51-6.79-6.26-10.54-3.56-2.81-7.21-3.22-8.72-3.29h-161c-1.42.16-5.43.81-9.1,4.32-3.79,3.61-4.87,8.02-5.18,9.51Z"/>
    <path class="cls-1" d="M443.31,323.9h-63.3c-5.55-3.49-11.1-6.99-16.65-10.48-10.53.01-21.06.03-31.59.04-5.11,3.48-10.22,6.96-15.33,10.44h-63.39c.28,1.4,1.51,6.79,6.26,10.54,3.56,2.81,7.21,3.22,8.72,3.29h161c1.42-.16,5.43-.81,9.1-4.32,3.79-3.61,4.87-8.02,5.18-9.51Z"/>
  </g>
</svg>