<?xml version="1.0" encoding="UTF-8"?>
<svg id="Capa_2" data-name="Capa 2" xmlns="http://www.w3.org/2000/svg" viewBox="0 0 861.69 826.89">
  <defs>
    <style>
      .cls-1 {
        fill: #fff;
        stroke-width: 8px;
      }

      .cls-1, .cls-2 {
        stroke-linejoin: round;
      }

      .cls-1, .cls-2, .cls-3 {
        stroke: #0095c9;
      }

      .cls-2, .cls-3 {
        fill: none;
        stroke-width: 10px;
      }

      .cls-3 {
        stroke-miterlimit: 10;
      }
    </style>
  </defs>
  <g id="Capa_1-2" data-name="Capa 1">
    <path class="cls-2" d="M227.47,376.18c15.89,4.27,31.78,8.55,47.67,12.82,5.9,7.28,11.79,14.56,17.69,21.84-4.11,10.29-8.21,20.58-12.32,30.87-9.99,3.01-19.98,6.01-29.97,9.02-15.94-4.28-31.89-8.57-47.83-12.85-4.09,10.29-8.17,20.57-12.26,30.86,15.91,4.29,31.81,8.59,47.72,12.88,5.84,7.25,11.69,14.5,17.53,21.75-4.05,10.31-8.11,20.62-12.16,30.93-1.07.32-5.81,1.74-6.87,2.06-7.72,2.31-15.43,4.63-23.16,6.94-15.9-4.29-31.8-8.58-47.71-12.87-5.89-7.27-11.77-14.53-17.66-21.8,4.1-10.29,8.2-20.58,12.3-30.87-15.91-4.29-31.82-8.58-47.74-12.86-4.11,10.3-8.21,20.6-12.32,30.89-10.01,3-20.02,6.01-30.03,9.01-15.89-4.26-31.79-8.53-47.68-12.79-.85-1.05-4.62-5.7-5.47-6.75-3.47-4.29-8.75-10.82-12.22-15.11,4.11-10.3,8.21-20.59,12.32-30.89,9.99-3,19.99-6,29.98-9,15.9,4.27,31.81,8.55,47.71,12.82,30.03-9.01,60.06-18.02,90.09-27.03,4.11-10.29,8.23-20.57,12.34-30.86,10.01-3,20.02-6.01,30.02-9.01Z"/>
    <path class="cls-2" d="M689.18,531.71c-.06-10.2-.12-20.4-.18-30.59,7.57-5.07,15.15-10.14,22.72-15.21,15.2.05,30.41.1,45.61.15,7.64,5.13,15.27,10.25,22.91,15.38,7.57-5.07,15.15-10.13,22.72-15.2,7.64,5.12,15.27,10.24,22.91,15.36.06,10.19.11,20.39.17,30.58-7.57,5.07-15.14,10.14-22.72,15.2-15.2-.05-30.4-.11-45.6-.16-7.64-5.12-15.28-10.25-22.92-15.37-7.57,5.07-15.15,10.14-22.72,15.21-7.63-5.12-15.26-10.24-22.89-15.36Z"/>
    <path class="cls-2" d="M854.21,288.9c.83,11.61,1.65,23.23,2.48,34.84-7.7,7.25-15.4,14.5-23.1,21.75-16.27,2.93-32.54,5.85-48.82,8.78-8.54-4.35-17.07-8.7-25.61-13.05-.83-11.61-1.65-23.22-2.48-34.83-8.53-4.35-17.06-8.69-25.59-13.04-16.25,2.9-32.5,5.81-48.76,8.71-7.87-4.01-15.75-8.03-23.62-12.04l-1.95-.99c-.83-11.61-1.65-23.21-2.48-34.82,7.73-7.26,15.46-14.51,23.19-21.77,16.25-2.93,32.49-5.85,48.74-8.78,8.53,4.35,17.05,8.69,25.58,13.04.84,11.6,1.68,23.2,2.51,34.8,8.52,4.36,17.04,8.71,25.56,13.07,16.24-2.91,32.49-5.82,48.73-8.73,6.35,3.23,12.69,6.47,19.04,9.7,2.19,1.12,4.38,2.23,6.57,3.35Z"/>
    <path class="cls-1" d="M503.37,46.07c-2.43-2.11-4.86-4.22-7.28-6.33-9.59-8.34-19.17-16.68-28.76-25.01,0,12.25,0,24.5,0,36.75-4.11-3.57-8.21-7.15-12.32-10.72,0-12.25,0-24.5,0-36.75-27.37.67-54.74,1.34-82.11,2.02,0,20.83,0,41.66,0,62.49,13.69,11.91,27.37,23.82,41.06,35.73,0,3.67,0,7.35,0,11.02-13.69-11.91-27.37-23.82-41.06-35.74,13.69,24.17,27.37,48.34,41.06,72.51,0,20.82,0,41.65,0,62.47,13.69,11.91,27.37,23.83,41.06,35.74,0,3.67,0,7.35,0,11.02-13.69-11.91-27.37-23.82-41.06-35.74,13.69,24.16,27.37,48.33,41.06,72.49,0,24.49,0,48.99,0,73.48-13.68.36-27.37.72-41.05,1.08l41.05,35.73v11.02s-41.06-35.74-41.06-35.74c0,8.79,0,17.57,0,26.36,0,12.03,0,24.06,0,36.1-13.69.34-27.37.68-41.06,1.02,0,24.49,0,48.99,0,73.48,27.37,48.33,54.74,96.65,82.11,144.98,0,24.45,0,48.89,0,73.34,16.12,14.03,32.24,28.06,48.36,42.09,0-118.04,0-236.08,0-354.12,0-126.93,0-253.87,0-380.8Z"/>
    <path class="cls-1" d="M532.49,688.62c27.53-32.08,55.07-64.16,82.6-96.24,0-20.82,0-41.63,0-62.45l-41.28,11.36v-11.02s41.28-11.36,41.28-11.36c-13.77-8.47-27.55-16.93-41.32-25.4-.14-21.22-.2-42.57-.17-64.06.01-11.74.06-23.45.12-35.13l-41.22,11.34v-11.02s41.28-11.36,41.28-11.36c-13.76-8.47-27.52-16.93-41.28-25.4,0-12.26,0-24.51,0-36.77,27.53-32.07,55.07-64.15,82.6-96.22l-41.28,11.36v-11.02s41.28-11.36,41.28-11.36c0-20.82,0-41.64,0-62.45-13.77-8.47-27.55-16.93-41.32-25.4,0-24.5,0-49,0-73.5-13.76-8.45-27.52-16.9-41.28-25.35v36.75s-12.38,3.41-12.38,3.41V30.57c-27.52,7.57-55.04,15.14-82.56,22.72-13.76,16.02-27.52,32.04-41.28,48.07,13.76-3.79,27.52-7.57,41.28-11.36,0,3.67,0,7.35,0,11.02-13.76,3.79-27.52,7.57-41.28,11.36,0,20.82,0,41.64,0,62.47,13.76,8.47,27.52,16.95,41.28,25.42,0,24.49,0,48.98,0,73.47-27.52,32.07-55.04,64.14-82.56,96.21l41.28-11.36v11.02s-41.28,11.36-41.28,11.36c0,6.28,0,12.57,0,18.85,0,14.56,0,29.11,0,43.67,27.52,16.92,55.04,33.84,82.56,50.76,0,24.5,0,49,0,73.5-13.76,16.04-27.52,32.08-41.28,48.13,0,24.5,0,49,0,73.5,13.76,8.46,27.52,16.93,41.28,25.39,0,24.5,0,48.99,0,73.48,13.77-3.79,27.53-7.58,41.3-11.36l12.38-3.41c13.75-3.78,27.51-7.57,41.26-11.35,0-24.49,0-48.99,0-73.48Z"/>
    <path class="cls-1" d="M551.75,749.56c27.38-.67,54.77-1.34,82.15-2.01,0-12.24,0-24.47,0-36.71-13.7-24.18-27.4-48.37-41.1-72.55,0-24.51,0-49.01,0-73.52,13.7-.32,27.4-.63,41.1-.95,0-33.08,0-66.16,0-99.24l-41.05-35.73v-11.02s41.05,35.73,41.05,35.73c-13.7-24.18-27.4-48.36-41.1-72.54,0-5.61,0-30.88,0-36.5,0-2.94,0-23.02,0-25.97-13.69-11.92-27.37-23.83-41.06-35.75,0-3.67,0-7.35,0-11.02,13.69,11.91,27.37,23.82,41.06,35.74-13.69-24.17-27.37-48.33-41.06-72.5,0-12.25,0-24.51,0-36.76,13.69-.34,27.37-.68,41.06-1.02l-41.06-35.73v-11.02s41.06,35.73,41.06,35.73c0-8.58,0-17.16,0-25.73-13.69-24.18-27.37-48.36-41.06-72.54-13.68-11.9-27.36-23.79-41.04-35.69-4.73-4.03-9.47-8.06-14.2-12.09h0c0,118.02,0,236.03,0,354.05,0,126.84,0,253.68,0,380.53,18.41,16.05,36.83,32.11,55.24,48.16,0-24.45,0-48.89,0-73.34Z"/>
    <path class="cls-3" d="M725.9,515.58c-9.76-7.81-19.53-15.63-29.29-23.44"/>
    <path class="cls-3" d="M700.91,261.78c-11.03-5.9-22.06-11.79-33.08-17.69"/>
    <path class="cls-3" d="M243.35,413.98c12.65-4.24,25.3-8.48,37.94-12.72"/>
  </g>
</svg>