<?xml version="1.0" encoding="UTF-8"?>
<svg id="Capa_2" data-name="Capa 2" xmlns="http://www.w3.org/2000/svg" viewBox="0 0 480.01 479.93">
  <defs>
    <style>
      .cls-1 {
        fill: none;
        stroke: #000;
        stroke-miterlimit: 10;
        stroke-width: 14px;
      }
    </style>
  </defs>
  <g id="Capa_1-2" data-name="Capa 1">
    <polygon class="cls-1" points="473.01 238.22 473.01 7 241.79 7 238.3 7 7.08 7 7.08 238.17 7.08 241.67 7.08 472.93 238.3 472.93 241.79 472.93 473.01 472.93 473.01 241.71 473.01 238.22"/>
    <path class="cls-1" d="M470.5,469.83l-107.73-186.59c2.24-1.29,4.48-2.59,6.73-3.88.94-3.54,1.89-7.07,2.83-10.61-1.29-2.24-2.59-4.48-3.88-6.72-3.53-.95-7.07-1.9-10.6-2.84-2.24,1.29-4.48,2.59-6.73,3.88h0c-36.69-63.54-73.37-127.08-110.05-190.62h-3.49c-36.68,63.53-73.35,127.05-110.03,190.58-2.24-1.29-4.49-2.59-6.74-3.88-3.53.95-7.07,1.9-10.6,2.84-1.29,2.24-2.59,4.48-3.88,6.72.95,3.54,1.89,7.07,2.83,10.61,2.24,1.3,4.49,2.6,6.73,3.89-35.93,62.23-71.86,124.47-107.79,186.7l1.76,3.02h459.01l1.62-3.1Z"/>
  </g>
</svg>