<?xml version="1.0" encoding="UTF-8"?>
<svg id="Capa_2" data-name="Capa 2" xmlns="http://www.w3.org/2000/svg" viewBox="0 0 412.97 412.97">
  <defs>
    <style>
      .cls-1 {
        stroke-width: 6px;
      }

      .cls-1, .cls-2, .cls-3 {
        fill: none;
        stroke: #ef7a70;
        stroke-miterlimit: 10;
      }

      .cls-2 {
        stroke-width: 8px;
      }

      .cls-3 {
        stroke-width: 4px;
      }
    </style>
  </defs>
  <g id="Capa_1-2" data-name="Capa 1">
    <path class="cls-2" d="M274.07,408.97h-135.05c-45.01-45.01-90.01-90.02-135.02-135.02v-135.07C49.03,93.92,94.05,48.96,139.08,4h134.95c44.98,44.96,89.96,89.92,134.94,134.89,0,45,0,90,0,135-44.97,45.03-89.94,90.06-134.9,135.09Z"/>
    <polygon class="cls-3" points="245.24 201.33 211.49 201.33 211.49 167.59 201.37 167.59 201.37 201.33 167.62 201.33 167.62 211.46 201.37 211.46 201.37 245.21 211.49 245.21 211.49 211.46 245.24 211.46 245.24 201.33"/>
    <rect class="cls-1" x="189.56" y="375.14" width="33.75" height="33.75"/>
    <polygon class="cls-1" points="206.49 37.75 225.97 4 187 4 206.49 37.75"/>
    <rect class="cls-3" x="197.99" y="66.36" width="16.87" height="10.12"/>
    <rect class="cls-3" x="197.99" y="336.37" width="16.87" height="10.12"/>
  </g>
</svg>