<?xml version="1.0" encoding="UTF-8"?>
<svg id="Capa_2" data-name="Capa 2" xmlns="http://www.w3.org/2000/svg" viewBox="0 0 212.27 626.15">
  <defs>
    <style>
      .cls-1 {
        fill: none;
        stroke: #000;
        stroke-miterlimit: 10;
        stroke-width: 14px;
      }
    </style>
  </defs>
  <g id="Capa_1-2" data-name="Capa 1">
    <path class="cls-1" d="M69.74,571.77c-20.91-20.91-41.83-41.83-62.74-62.74,0-10.46,0-20.91,0-31.37,10.46-10.46,20.91-20.92,31.37-31.37,0-20.91,0-41.83,0-62.74-10.46-10.46-20.91-20.91-31.37-31.37v-10.04c0-5.42,0-10.84,0-16.26,0-12.15,0-24.29,0-36.44,20.91-20.92,41.83-41.83,62.74-62.75,0-10.46,0-20.91,0-31.37-10.46-10.46-20.91-20.92-31.37-31.37v-10.04c0-.88,0-1.76,0-2.64,0-16.69,0-33.38,0-50.07,10.46-10.46,20.91-20.91,31.37-31.37,0-20.91,0-41.83,0-62.74h31.37c1.31-.04,2.65-.06,4.01-.07,2.06-.01,4.07.01,6.03.07,6.43-.08,12.91-.09,19.44-.02.63,0,1.26.01,1.9.02h10.04c20.91,20.91,41.83,41.83,62.74,62.74,0,9.48,0,18.96,0,28.44,0,8.09,0,16.17,0,24.26v10.04c-10.46,10.46-20.91,20.91-31.37,31.37v33.94c0,6.26,0,12.51,0,18.77v10.04c-10.46,10.46-20.92,20.92-31.37,31.37,0,10.46,0,20.92,0,31.37,10.46,10.46,20.91,20.91,31.37,31.37,0,10.46,0,20.92,0,31.37-10.46,10.46-20.91,20.91-31.37,31.37,20.91,20.91,41.83,41.83,62.74,62.74,0,10.46,0,20.92,0,31.37-20.91,20.91-41.83,41.83-62.74,62.74,0,26.25,0,52.5,0,78.75-24.26,0-48.52,0-72.78,0,0-15.79,0-31.59,0-47.38Z"/>
  </g>
</svg>