<?xml version="1.0" encoding="UTF-8"?>
<svg id="Capa_2" data-name="Capa 2" xmlns="http://www.w3.org/2000/svg" viewBox="0 0 370.12 465.96">
  <defs>
    <style>
      .cls-1 {
        stroke-width: 6px;
      }

      .cls-1, .cls-2, .cls-3 {
        fill: none;
        stroke: #ef7a70;
        stroke-miterlimit: 10;
      }

      .cls-2 {
        stroke-width: 10px;
      }

      .cls-3 {
        stroke-width: 8px;
      }
    </style>
  </defs>
  <g id="Capa_1-2" data-name="Capa 1">
    <path class="cls-2" d="M197.33,212.06c10.09-9.84,20.17-19.68,30.26-29.53h30.21c10.11,9.84,20.22,19.68,30.33,29.53v29.51c-10.08,9.84-20.17,19.67-30.25,29.51h-14.74c-5.19,0-10.38-.01-15.57-.02-10.08-9.83-20.17-19.67-30.25-29.5v-29.51Z"/>
    <path class="cls-3" d="M119.57,416.28V98.17c.03-3.69.53-18.06,10.56-30.46,11.79-14.57,27.67-15.22,30.37-15.28h164.53c2.41-.11,18.09-.51,30.12,13.37,11.4,13.15,11.04,29.33,10.93,32.13v318.35c-.05,3.31-.62,18.87-11.98,31.65-11.79,13.26-26.52,13.75-29.35,13.78h-164.16c-1.79.25-18.7,2.32-31.2-12.14-11.83-13.69-10.09-31.04-9.82-33.29Z"/>
    <path class="cls-1" d="M128.04,72.59h76.31c6.69,4.29,13.38,8.57,20.07,12.86,12.7-.02,25.39-.03,38.09-.05,6.16-4.27,12.32-8.54,18.48-12.81h76.42c-.34-1.72-1.83-8.33-7.54-12.93-4.29-3.45-8.7-3.95-10.52-4.04h-194.1c-1.71.2-6.54,1-10.97,5.29-4.56,4.43-5.88,9.84-6.24,11.67Z"/>
    <path class="cls-1" d="M356.81,440.84h-76.31c-6.69-4.29-13.38-8.57-20.07-12.86-12.7.02-25.39.03-38.09.05-6.16,4.27-12.32,8.54-18.48,12.81h-76.42c.34,1.72,1.83,8.33,7.54,12.93,4.29,3.45,8.7,3.95,10.52,4.04h194.1c1.71-.2,6.54-1,10.97-5.29,4.56-4.43,5.88-9.84,6.24-11.67Z"/>
    <path class="cls-1" d="M302.06,51.75c-.48-1.73-6.77-22.82-27.3-28.7-8.37-2.4-15.84-1.33-20.14-.34-54.66,10.69-109.32,21.39-163.98,32.08-5.45,1.87-12.39,5.19-18.46,11.21-19.68,19.53-11.41,49.03-10.63,51.65,15.93,100.37,31.86,200.74,47.78,301.11.22,2.01,4.08,32.71,26.47,40.26,2.86.96,6.54,1.72,11.07,1.63"/>
    <path class="cls-1" d="M234.05,25.57c-.79-1.81-8.05-17.63-26.01-21.67-10.33-2.32-18.95.43-22.43,1.75C132.13,28.64,78.65,51.63,25.16,74.62c-4,2.69-13.59,9.9-18.81,22.82-6.49,16.08-1.82,30.15-.34,34.12,35.39,99.9,70.78,199.81,106.17,299.71"/>
  </g>
</svg>