<?xml version="1.0" encoding="UTF-8"?>
<svg id="Capa_2" data-name="Capa 2" xmlns="http://www.w3.org/2000/svg" viewBox="0 0 461.1 425.7">
  <defs>
    <style>
      .cls-1 {
        fill: none;
        stroke: #ef7a70;
        stroke-miterlimit: 10;
        stroke-width: 8px;
      }
    </style>
  </defs>
  <g id="Capa_1-2" data-name="Capa 1">
    <path class="cls-1" d="M28.07,95.39c61.18-28.95,122.36-57.9,183.54-86.85"/>
    <path class="cls-1" d="M249.97,239.38c69.04-32.67,138.08-65.34,207.13-98.01"/>
    <path class="cls-1" d="M105.32,137.08c60.98-28.35,121.95-56.71,182.93-85.06"/>
    <path class="cls-1" d="M185.02,179.5c60.85-28.37,121.69-56.75,182.54-85.12"/>
    <path class="cls-1" d="M457.1,141.37C375.11,97.35,293.12,53.33,211.13,9.31"/>
    <path class="cls-1" d="M249.97,239.38c-8.87-13.55-17.75-27.11-26.62-40.66-65.17-34.69-130.35-69.39-195.52-104.08-7.94,4.37-15.89,8.75-23.83,13.12"/>
    <path class="cls-1" d="M249.7,408.15c69.13-32.51,138.27-65.02,207.4-97.52"/>
    <path class="cls-1" d="M457.55,142.07c-9.5-14.04-18.99-28.08-28.49-42.12-59.7-31.94-119.39-63.89-179.09-95.83-13.07,1.55-26.14,3.09-39.22,4.64"/>
    <path class="cls-1" d="M249.97,408.01c-8.79,4.4-17.59,8.79-26.38,13.19-65.32-34.9-130.64-69.8-195.96-104.7-7.88-13.16-15.75-26.32-23.63-39.48"/>
    <line class="cls-1" x1="457.1" y1="140.51" x2="457.1" y2="311.61"/>
    <line class="cls-1" x1="367.8" y1="95.76" x2="367.8" y2="185.36"/>
    <line class="cls-1" x1="288.25" y1="50.62" x2="288.25" y2="133.22"/>
    <line class="cls-1" x1="210.76" y1="7.18" x2="210.76" y2="89.79"/>
    <line class="cls-1" x1="249.97" y1="237.13" x2="249.97" y2="409.51"/>
    <line class="cls-1" x1="4" y1="106.77" x2="4" y2="277.59"/>
  </g>
</svg>