<?xml version="1.0" encoding="UTF-8"?>
<svg id="Capa_2" data-name="Capa 2" xmlns="http://www.w3.org/2000/svg" viewBox="0 0 476.05 476.05">
  <defs>
    <style>
      .cls-1 {
        stroke-dasharray: 10 10;
        stroke-width: 6px;
      }

      .cls-1, .cls-2 {
        fill: none;
        stroke: #ef7a70;
        stroke-miterlimit: 10;
      }

      .cls-2 {
        stroke-width: 8px;
      }
    </style>
  </defs>
  <g id="Capa_1-2" data-name="Capa 1">
    <polygon class="cls-2" points="472.05 236.27 472.05 4 239.78 4 236.27 4 4 4 4 236.23 4 239.74 4 472.05 236.27 472.05 239.78 472.05 472.05 472.05 472.05 239.78 472.05 236.27"/>
    <path class="cls-1" d="M167.82,4c0,7.21,0,14.43,0,21.64,15.61,15.61,31.22,31.21,46.83,46.82h46.79c15.6-15.61,31.2-31.23,46.8-46.84,0-7.21,0-14.41,0-21.62"/>
    <path class="cls-1" d="M121.03,4.01v37.25c26.01,26,52.02,52,78.02,78.01h77.97c26-26.02,52-52.04,78-78.05V4.01"/>
    <path class="cls-1" d="M4,167.82c7.21,0,14.43,0,21.64,0,15.61,15.61,31.21,31.22,46.82,46.83v46.79c-15.61,15.6-31.23,31.2-46.84,46.8-7.21,0-14.41,0-21.62,0"/>
    <path class="cls-1" d="M4.01,121.03h37.25c26,26.01,52,52.02,78.01,78.02v77.97c-26.02,26-52.04,52-78.05,78H4.01"/>
    <path class="cls-1" d="M472.05,167.82c-7.21,0-14.43,0-21.64,0-15.61,15.61-31.21,31.22-46.82,46.83v46.79c15.61,15.6,31.23,31.2,46.84,46.8,7.21,0,14.41,0,21.62,0"/>
    <path class="cls-1" d="M472.04,121.03h-37.25c-26,26.01-52,52.02-78.01,78.02v77.97c26.02,26,52.04,52,78.05,78h37.2"/>
    <path class="cls-1" d="M308.23,472.05c0-7.21,0-14.43,0-21.64-15.61-15.61-31.22-31.21-46.83-46.82h-46.79c-15.6,15.61-31.2,31.23-46.8,46.84,0,7.21,0,14.41,0,21.62"/>
    <path class="cls-1" d="M355.02,472.04v-37.25c-26.01-26-52.02-52-78.02-78.01h-77.97c-26,26.02-52,52.04-78,78.05v37.2"/>
    <path class="cls-2" d="M470.28,467.56l-108.22-187.44c2.25-1.3,4.5-2.6,6.76-3.9.95-3.55,1.9-7.1,2.85-10.66-1.3-2.25-2.6-4.5-3.9-6.75-3.55-.95-7.1-1.9-10.65-2.86-2.25,1.3-4.5,2.6-6.76,3.9.03.05.06.1.09.16l-110.65-191.65h-3.51c-36.84,63.82-73.69,127.63-110.53,191.45-2.26-1.3-4.51-2.6-6.77-3.9-3.55.95-7.1,1.9-10.65,2.86-1.3,2.25-2.6,4.5-3.9,6.75.95,3.55,1.9,7.1,2.85,10.66,2.25,1.3,4.51,2.61,6.76,3.91-36.09,62.52-72.19,125.03-108.28,187.55l1.77,3.03h461.1l1.63-3.11Z"/>
  </g>
</svg>