<?xml version="1.0" encoding="UTF-8"?>
<svg id="Capa_2" data-name="Capa 2" xmlns="http://www.w3.org/2000/svg" viewBox="0 0 644.84 316.17">
  <defs>
    <style>
      .cls-1 {
        fill: none;
        stroke: #ef7a70;
        stroke-miterlimit: 10;
        stroke-width: 6px;
      }
    </style>
  </defs>
  <g id="Capa_1-2" data-name="Capa 1">
    <g>
      <path class="cls-1" d="M313.17,240.95s0,0,0,0c0-.15,0-.29,0-.44v.44Z"/>
      <path class="cls-1" d="M279.19,36.99h-33.98c-11.33,11.33-22.66,22.66-33.99,33.99h0c11.33,0,22.66,0,33.99,0v10.2h-33.99v23.8c11.33,11.33,22.66,22.66,33.99,33.99v33.98c-11.34,11.29-22.68,22.59-34.02,33.88.01,11.37.02,22.74.03,34.11,11.33,11.33,22.66,22.66,33.99,33.99h33.98c11.32-11.33,22.65-22.66,33.97-33.98h-33.99v-10.2h33.98c-.01-7.99-.02-15.97-.04-23.96-4.76-4.75-16.46-16.43-21.22-21.17-1.88-1.87-10.83-10.8-12.71-12.67-.02-5.63-.04-11.29-.04-16.96s.01-11.37.04-17.02c11.33-11.33,22.65-22.66,33.98-33.99v-34c-11.33-11.33-22.65-22.66-33.98-33.99Z"/>
    </g>
    <path class="cls-1" d="M177.2,138.92h33.98c-11.34-11.32-22.67-22.64-34.01-33.96h-34c-11.32,11.33-22.65,22.65-33.97,33.98-11.33-11.33-22.65-22.66-33.98-33.99,11.33-11.32,22.67-22.65,34-33.97,0-11.34,0-22.68,0-34.02-11.34-11.32-22.68-22.64-34.02-33.96h-34C29.89,14.32,18.57,25.64,7.24,36.96c11.33,0,22.66,0,33.99,0v10.2H7.24v23.82c11.32,11.32,22.65,22.65,33.97,33.97,0,33.99,0,67.99,0,101.98-11.33,11.33-22.65,22.65-33.97,33.98v34c11.32,11.33,22.65,22.67,33.97,34,7.94,0,15.87,0,23.81,0v-33.99h10.2v33.99c11.34-11.34,22.68-22.67,34.02-34.01v-34.01c-11.34-11.32-22.68-22.65-34.02-33.97,11.33-11.34,22.66-22.68,33.99-34.01,11.32,11.34,22.65,22.68,33.97,34.01h34.02c11.33-11.33,22.67-22.67,34-34v-23.82h-33.99v-10.2Z"/>
    <path class="cls-1" d="M513.56,206.95c-11.33-11.33-22.66-22.67-33.98-34-11.32,0-22.65,0-33.97-.01,0-33.99,0-67.98,0-101.97-11.34-11.32-22.68-22.65-34.02-33.97-11.33.01-22.66.03-33.99.04-11.32,11.3-22.64,22.61-33.95,33.91h33.99v10.2h-33.99c0,7.93,0,15.86,0,23.8,11.32,11.34,22.64,22.68,33.96,34.02,11.33,0,22.66,0,33.99,0,0,33.99,0,67.97,0,101.96,11.32,11.34,22.64,22.68,33.97,34.02h23.77c.01-11.33.03-22.66.04-33.99h10.2v33.99c11.34-11.34,22.67-22.68,34.01-34.02,0-11.32,0-22.63-.01-33.95Z"/>
    <path class="cls-1" d="M637.6,123.7v-23.79h-44.19v-34c-11.33-11.33-22.65-22.65-33.98-33.98v33.99h-10.2V31.93h-33.99c-11.33,11.33-22.67,22.65-34,33.98,11.33,0,22.66.01,34,.02v10.2h-33.99c0,7.93,0,15.85,0,23.78h44.2v34.02c11.33,11.32,22.65,22.64,33.98,33.96v-33.99h10.2v33.99c2.71,0,13.87,0,16.58,0,2.97,0,14.45,0,17.42,0,11.33-11.33,22.65-22.67,33.98-34h-33.99v-10.2h33.99Z"/>
  </g>
</svg>