<?xml version="1.0" encoding="UTF-8"?>
<svg id="Capa_2" data-name="Capa 2" xmlns="http://www.w3.org/2000/svg" viewBox="0 0 324.53 139.03">
  <defs>
    <style>
      .cls-1 {
        fill: #ef7b71;
      }
    </style>
  </defs>
  <g id="Capa_1-2" data-name="Capa 1">
    <path class="cls-1" d="M46.39,139.03c-15.46-15.44-30.93-30.89-46.39-46.33v-46.25C15.46,30.96,30.93,15.48,46.39,0h46.38c15.46,15.44,30.91,30.88,46.37,46.31,15.44,0,30.88,0,46.33,0,15.47-15.44,30.94-30.87,46.41-46.31h46.3c15.45,15.43,30.91,30.87,46.36,46.3-.03,15.45-.06,30.9-.08,46.34-15.44,15.46-30.87,30.92-46.31,46.39h-46.32c-15.46-15.42-30.92-30.83-46.38-46.25-15.45-.02-30.89-.04-46.34-.07-15.45,15.44-30.9,30.88-46.35,46.32h-46.37Z"/>
  </g>
</svg>