<?xml version="1.0" encoding="UTF-8"?>
<svg id="Capa_2" data-name="Capa 2" xmlns="http://www.w3.org/2000/svg" viewBox="0 0 324.53 231.81">
  <defs>
    <style>
      .cls-1 {
        fill: #0e789a;
      }
    </style>
  </defs>
  <g id="Capa_1-2" data-name="Capa 1">
    <path class="cls-1" d="M46.41,92.74c46.35-.01,92.7-.02,139.05-.03,0-15.47.02-30.94.03-46.41C200.92,30.87,216.36,15.43,231.8,0c10.6.02,44.11,0,46.39,0,15.45,15.47,30.9,30.94,46.34,46.41,0,15.44,0,30.88,0,46.32-15.44,15.45-30.89,30.9-46.33,46.35-46.36,0-92.71.01-139.07.02,0,15.43-.01,30.87-.02,46.3-15.46,15.47-30.91,30.94-46.37,46.41-15.44,0-30.87,0-46.31,0C30.96,216.35,15.48,200.89,0,185.44c0-2.97,0-37.16,0-46.31,15.47-15.46,30.94-30.93,46.41-46.39Z"/>
  </g>
</svg>