<?xml version="1.0" encoding="UTF-8"?>
<svg id="Capa_2" data-name="Capa 2" xmlns="http://www.w3.org/2000/svg" viewBox="0 0 490.57 205.43">
  <defs>
    <style>
      .cls-1 {
        fill: none;
        stroke: #aed083;
        stroke-miterlimit: 10;
        stroke-width: 7px;
      }
    </style>
  </defs>
  <g id="Capa_1-2" data-name="Capa 1">
    <path class="cls-1" d="M234.39,99.35c1.5,1.11,3,2.22,4.5,3.33-1.5,1.14-3,2.27-4.5,3.41,0-2.24,0-4.49,0-6.73Z"/>
    <line class="cls-1" x1="233.26" y1="102.71" x2="218.85" y2="102.71"/>
    <path class="cls-1" d="M116.89,3.5c18.9,9.45,37.79,18.9,56.69,28.35,0,9.45,0,18.9,0,28.34,9.45,9.45,18.9,18.9,28.35,28.35v28.35c-9.45,9.45-18.9,18.9-28.35,28.35,0,9.45,0,18.9,0,28.34-18.9,9.45-37.8,18.9-56.69,28.35-9.45,0-18.89,0-28.34,0-18.9-9.45-37.8-18.9-56.69-28.34,0-9.45,0-18.9,0-28.34-9.45-9.45-18.9-18.9-28.35-28.35,0-9.45,0-18.9,0-28.35,9.45-9.45,18.89-18.9,28.34-28.35,0-9.45,0-18.9,0-28.35,18.9-9.45,37.79-18.9,56.69-28.35,9.45,0,18.9,0,28.35,0Z"/>
    <path class="cls-1" d="M373.68,3.5c37.8,9.45,75.59,18.9,113.39,28.35,0,9.45,0,18.9,0,28.35-9.45,9.45-18.9,18.9-28.35,28.35,0,9.45,0,18.9,0,28.35,9.45,9.45,18.9,18.9,28.35,28.35,0,9.45,0,18.9,0,28.34-37.8,9.45-75.59,18.9-113.39,28.35-9.45,0-18.9,0-28.35,0-37.8-9.45-75.59-18.9-113.39-28.35,0-9.45,0-18.9,0-28.35,9.45-9.45,18.9-18.9,28.35-28.35,0-9.45,0-18.9,0-28.35-9.45-9.45-18.9-18.9-28.35-28.35,0-9.45,0-18.9,0-28.35,37.8-9.45,75.59-18.9,113.39-28.35,9.45,0,18.9,0,28.35,0Z"/>
  </g>
</svg>