<?xml version="1.0" encoding="UTF-8"?>
<svg id="Capa_2" data-name="Capa 2" xmlns="http://www.w3.org/2000/svg" viewBox="0 0 681.07 680.55">
  <defs>
    <style>
      .cls-1 {
        fill: #0095c8;
      }
    </style>
  </defs>
  <g id="Capa_1-2" data-name="Capa 1">
    <path class="cls-1" d="M227.09,680.55C151.4,604.95,75.7,529.36,0,453.76c0-75.47,0-150.94,0-226.41C75.7,151.56,151.4,75.78,227.09,0c75.67,0,151.34,0,227.01,0,75.66,75.57,151.31,151.14,226.97,226.71,0,36.81,0,73.62,0,110.44-.04,38.9-.09,77.8-.13,116.7-75.63,75.57-151.25,151.14-226.88,226.71-56.24,0-112.48,0-168.72,0-19.41,0-38.83,0-58.25,0Z"/>
  </g>
</svg>